<svg width="44" height="44" viewBox="0 0 44 44" fill="none" xmlns="http://www.w3.org/2000/svg">
<g clip-path="url(#clip0_431_470)">
<path d="M37.5564 6.44368C33.4011 2.28846 27.8765 0 22 0C16.1236 0 10.5989 2.28846 6.44368 6.44368C2.28846 10.5989 0 16.1236 0 22C0 27.8765 2.28837 33.4011 6.44368 37.5564C10.599 41.7117 16.1236 44.0001 22 44.0001C27.8765 44.0001 33.4012 41.7117 37.5564 37.5564C41.7116 33.4012 44.0001 27.8765 44.0001 22C44.0001 16.1236 41.7116 10.5989 37.5564 6.44368ZM22 42.2441C10.8374 42.2441 1.75593 33.1626 1.75593 22C1.75593 10.8375 10.8374 1.75593 22 1.75593C33.1626 1.75593 42.2441 10.8374 42.2441 22C42.2441 33.1625 33.1627 42.2441 22 42.2441Z" fill="white"/>
<path d="M21.9999 3.7196C11.92 3.7196 3.71954 11.9201 3.71954 22C3.71954 32.0799 11.92 40.2805 21.9999 40.2805C32.0799 40.2805 40.2805 32.0799 40.2805 22C40.2805 11.9201 32.0799 3.7196 21.9999 3.7196ZM24.1766 35.0505H19.8218C18.1761 29.5551 14.0091 25.1159 8.62044 23.1344L10.1255 16.7458C13.9904 15.8053 17.9823 15.3273 22.0002 15.3273C26.0196 15.3273 30.0111 15.8055 33.8746 16.7468L35.3794 23.1339C29.99 25.1148 25.8224 29.5543 24.1766 35.0505ZM5.47547 22C5.47547 20.602 5.65068 19.2442 5.97913 17.9467C6.71379 17.6989 7.45665 17.4676 8.20175 17.2542L6.94031 22.6087C6.46084 22.4837 5.97367 22.3771 5.47918 22.2906C5.47752 22.1939 5.47547 22.0972 5.47547 22ZM37.0597 22.6084L35.7984 17.2547C36.5442 17.4681 37.2871 17.6994 38.0211 17.9473C38.3493 19.2446 38.5245 20.6022 38.5245 22C38.5245 22.0971 38.5225 22.1938 38.5208 22.2904C38.0263 22.3769 37.5392 22.4834 37.0597 22.6084ZM21.9999 5.47554C28.9525 5.47554 34.9153 9.79181 37.3512 15.8852C36.5124 15.6253 35.6668 15.3865 34.8229 15.1723C30.6588 14.1101 26.3447 13.5715 22.0002 13.5715C17.6575 13.5715 13.3431 14.1098 9.17707 15.1712C8.33364 15.3858 7.48816 15.6249 6.64883 15.885C9.08479 9.79162 15.0475 5.47554 21.9999 5.47554ZM5.60844 24.1012C12.5205 25.5003 17.8092 31.1935 18.6994 38.1931C11.8357 36.7963 6.50455 31.1316 5.60844 24.1012ZM20.4958 38.4553C20.44 37.8983 20.3595 37.3482 20.2547 36.8064H23.744C23.639 37.3482 23.5586 37.8984 23.5028 38.4555C23.0077 38.5004 22.5067 38.5246 22 38.5246C21.4929 38.5245 20.9914 38.5003 20.4958 38.4553ZM25.2991 38.1934C26.1893 31.1925 31.4788 25.4991 38.3917 24.1009C37.4955 31.132 32.1636 36.797 25.2991 38.1934Z" fill="white"/>
<path d="M22 17.0074C19.247 17.0074 17.0074 19.2471 17.0074 22C17.0074 24.7531 19.247 26.9927 22 26.9927C24.753 26.9927 26.9926 24.7531 26.9926 22C26.9926 19.2471 24.753 17.0074 22 17.0074ZM22 25.2367C20.2152 25.2367 18.7633 23.7848 18.7633 21.9999C18.7633 20.2152 20.2152 18.7633 22 18.7633C23.7847 18.7633 25.2367 20.2152 25.2367 21.9999C25.2367 23.7848 23.7848 25.2367 22 25.2367Z" fill="white"/>
</g>
<defs>
<clipPath id="clip0_431_470">
<rect width="44" height="44" fill="white"/>
</clipPath>
</defs>
</svg>
