<svg width="15" height="15" viewBox="0 0 15 15" fill="none" xmlns="http://www.w3.org/2000/svg">
<g clip-path="url(#clip0_431_407)">
<path d="M5.11338 14.9104L12.3076 7.71641C12.4222 7.60179 12.4222 7.39883 12.3076 7.28421L5.11308 0.0895587C5.05577 0.0322472 4.97798 0 4.89698 0C4.81598 0 4.73819 0.0322472 4.68087 0.0895587L2.69607 2.07437C2.63631 2.13412 2.60651 2.21222 2.60651 2.29047C2.60651 2.36872 2.63631 2.44682 2.69607 2.50657L7.68965 7.50016L2.69622 12.4939C2.58144 12.6085 2.58159 12.8115 2.69622 12.9261L4.68103 14.9104C4.80054 15.03 4.99402 15.03 5.11338 14.9104Z" fill="white"/>
</g>
<defs>
<clipPath id="clip0_431_407">
<rect width="15" height="15" fill="white"/>
</clipPath>
</defs>
</svg>
