<svg width="44" height="44" viewBox="0 0 44 44" fill="none" xmlns="http://www.w3.org/2000/svg">
<g clip-path="url(#clip0_431_448)">
<path d="M14.6202 26.7022H29.3798C29.7677 26.7022 30.0819 26.3879 30.0819 26.0001V10.7235C30.0819 10.3356 29.7677 10.0213 29.3798 10.0213H25.9787V9.72335C25.9787 7.52944 24.1939 5.74463 22 5.74463C19.8061 5.74463 18.0213 7.52944 18.0213 9.72335V10.0213H14.6202C14.2323 10.0213 13.918 10.3356 13.918 10.7235V26.0001C13.918 26.3878 14.2323 26.7022 14.6202 26.7022V26.7022ZM19.4255 9.72335C19.4255 8.30384 20.5805 7.14888 22 7.14888C23.4195 7.14888 24.5745 8.30384 24.5745 9.72335V10.0213H19.4255V9.72335ZM15.3223 11.4256H18.0213V12.5958C18.0213 12.9837 18.3355 13.2979 18.7234 13.2979C19.1112 13.2979 19.4255 12.9837 19.4255 12.5958V11.4256H24.5745V12.5958C24.5745 12.9837 24.8887 13.2979 25.2766 13.2979C25.6644 13.2979 25.9787 12.9837 25.9787 12.5958V11.4256H28.6777V25.2979H15.3223V11.4256V11.4256Z" fill="white"/>
<path d="M42.3298 2H1.67022C0.749217 2 0 2.74922 0 3.67022V34.4894C0 35.4104 0.749217 36.1596 1.67022 36.1596H17.0053V41.532H10.3831C9.99521 41.532 9.68094 41.8463 9.68094 42.2342C9.68094 42.622 9.99521 42.9363 10.3831 42.9363H33.6171C34.005 42.9363 34.3193 42.622 34.3193 42.2342C34.3193 41.8463 34.005 41.532 33.6171 41.532H26.9948V36.1596H42.33C43.251 36.1596 44.0002 35.4104 44.0002 34.4894V3.67022C44 2.74922 43.2508 2 42.3298 2ZM25.5905 41.532H18.4096V36.1596H25.5905V41.532ZM42.5957 34.4894C42.5957 34.6336 42.474 34.7554 42.3298 34.7554H1.67022C1.52605 34.7554 1.40426 34.6336 1.40426 34.4894V3.67022C1.40426 3.52605 1.52605 3.40426 1.67022 3.40426H42.3298C42.474 3.40426 42.5957 3.52605 42.5957 3.67022V34.4894Z" fill="white"/>
<path d="M40.3937 29.0427H3.6063C3.21845 29.0427 2.90417 29.357 2.90417 29.7449C2.90417 30.1327 3.21845 30.447 3.6063 30.447H40.3936C40.7814 30.447 41.0957 30.1327 41.0957 29.7449C41.0957 29.357 40.7814 29.0427 40.3937 29.0427V29.0427Z" fill="white"/>
</g>
<defs>
<clipPath id="clip0_431_448">
<rect width="44" height="44" fill="white"/>
</clipPath>
</defs>
</svg>
