<svg width="44" height="44" viewBox="0 0 44 44" fill="none" xmlns="http://www.w3.org/2000/svg">
<path d="M21.8476 32.0978V22.9807C23.1297 21.3069 23.806 19.3163 23.806 17.2081C23.806 15.1159 23.1343 13.1268 21.8637 11.4562C20.7384 9.97647 19.1751 8.83075 17.4224 8.19172V6.96393C18.172 6.65525 18.7005 5.92375 18.7005 5.07237V2.04823C18.7004 0.918842 17.7707 0 16.6281 0H11.4523C10.3096 0 9.38001 0.918842 9.38001 2.04823V5.07237C9.38001 5.92366 9.90835 6.65516 10.6579 6.96393V8.1918C8.9052 8.83075 7.342 9.97664 6.21665 11.4563C4.94598 13.127 4.27429 15.1159 4.27429 17.2082C4.27429 19.3163 4.95053 21.307 6.23281 22.9808V32.0978C5.16383 32.4853 4.4142 33.5031 4.4142 34.6662V41.2644C4.4142 42.7729 5.65771 44 7.18611 44H20.8943C22.4226 44 23.6661 42.7729 23.6661 41.2644V34.6662C23.6661 33.5031 22.9165 32.4853 21.8476 32.0978ZM16.5091 1.34715H16.6281C17.028 1.34715 17.3533 1.66168 17.3533 2.04832V5.07245C17.3533 5.45908 17.028 5.77361 16.6281 5.77361H16.5091V1.34715ZM14.4892 1.34715H15.6111V5.77353H14.4892V1.34715ZM12.4692 1.34715H13.5911V5.77353H12.4692V1.34715ZM12.005 7.1206H16.075V7.5166H12.005V7.1206ZM10.7271 2.04823C10.7271 1.6616 11.0524 1.34707 11.4523 1.34707H11.5711V5.77344H11.4523C11.0524 5.77344 10.7271 5.45891 10.7271 5.07228V2.04823ZM5.62145 17.2081C5.62145 15.4129 6.198 13.706 7.28881 12.2718C8.34584 10.882 9.85155 9.83381 11.5287 9.32016C11.7497 9.25244 11.9146 9.07773 11.9768 8.86375H16.1034C16.1656 9.07773 16.3305 9.25244 16.5515 9.32016C18.2287 9.8339 19.7344 10.8821 20.7916 12.2717C21.8824 13.7059 22.4589 15.4129 22.4589 17.2081C22.4589 19.0857 21.8332 20.8553 20.6494 22.3254C20.5531 22.445 20.5005 22.5941 20.5005 22.7478V23.2934H20.0113V22.7478C20.0113 22.4841 20.1025 22.2257 20.2679 22.0202C20.5562 21.6624 20.813 21.2793 21.0315 20.8816C21.301 20.3908 21.291 19.7868 21.0058 19.3057C20.7207 18.8243 20.1959 18.5253 19.636 18.5253H18.2281C17.856 18.5253 17.5545 18.8267 17.5545 19.1988C17.5545 19.5709 17.856 19.8724 18.2281 19.8724H19.636C19.7221 19.8724 19.8028 19.9183 19.8468 19.9925C19.8904 20.0659 19.892 20.1583 19.8508 20.2333C19.6702 20.5618 19.4576 20.8788 19.2186 21.1756C18.8612 21.6197 18.6643 22.1781 18.6643 22.748V23.2936H9.41619V22.748C9.41619 22.1782 9.21939 21.6198 8.86172 21.1755C8.6223 20.8781 8.40969 20.5612 8.22965 20.2331C8.18848 20.1581 8.19003 20.0659 8.23343 19.9925C8.27734 19.9184 8.35821 19.8724 8.44432 19.8724H15.0847C15.4568 19.8724 15.7583 19.5709 15.7583 19.1988C15.7583 18.8267 15.4568 18.5253 15.0847 18.5253H8.44432C7.88487 18.5253 7.36005 18.8241 7.07448 19.3057C6.78925 19.7875 6.77963 20.3914 7.04895 20.8815C7.26672 21.2783 7.52367 21.6614 7.81251 22.0201C7.97802 22.2257 8.06912 22.4842 8.06912 22.7479V23.2934H7.57996V22.7479C7.57996 22.5942 7.52745 22.4451 7.43103 22.3255C6.24716 20.8552 5.62145 19.0857 5.62145 17.2081ZM20.3216 34.982C20.4178 35.017 20.4826 35.1089 20.4826 35.2111V40.5742C20.4826 40.7086 20.3728 40.8181 20.2379 40.8181H7.84224C7.70732 40.8181 7.59758 40.7086 7.59758 40.5742V35.2112C7.59758 35.109 7.66229 35.0169 7.75845 34.982C8.75 34.6229 9.41619 33.6747 9.41619 32.6229V32.3839H18.6642V32.6229C18.6642 33.6747 19.3302 34.6226 20.3216 34.982ZM7.57988 31.0369V24.6406H20.5005V31.0369H7.57988ZM22.3189 41.2644C22.3189 42.03 21.6798 42.6528 20.8943 42.6528H7.18611C6.40047 42.6528 5.76127 42.03 5.76127 41.2644V34.6661C5.76127 33.9741 6.29116 33.3828 6.99378 33.2908C7.32911 33.2469 7.57988 32.9612 7.57988 32.6229V32.3839H8.06903V32.6229C8.06903 33.1097 7.75992 33.5487 7.29963 33.7154C6.67212 33.9428 6.25042 34.544 6.25042 35.2111V40.5741C6.25042 41.4514 6.96448 42.1652 7.84216 42.1652H20.2379C21.1155 42.1652 21.8297 41.4514 21.8297 40.5741V35.211C21.8297 34.5437 21.4081 33.9427 20.7805 33.7155C20.3204 33.5486 20.0112 33.1096 20.0112 32.6229V32.3839H20.5003V32.6229C20.5003 32.9612 20.7511 33.2468 21.0864 33.2908C21.789 33.3828 22.3188 33.9741 22.3188 34.6661V41.2644H22.3189Z" fill="white"/>
<path d="M38.134 21.9196H36.459C36.0869 21.9196 35.7855 22.221 35.7855 22.5931C35.7855 22.9652 36.0869 23.2667 36.459 23.2667H38.134C38.2689 23.2667 38.3786 23.3761 38.3786 23.5105V28.4332H37.8895V28.3728C37.8895 28.0007 37.588 27.6992 37.2159 27.6992C36.8438 27.6992 36.5423 28.0007 36.5423 28.3728V28.4332H27.0548V23.5105C27.0548 23.3761 27.1646 23.2667 27.2995 23.2667H33.226C33.5981 23.2667 33.8996 22.9652 33.8996 22.5931C33.8996 22.221 33.5981 21.9196 33.226 21.9196H27.2995C26.4219 21.9196 25.7078 22.6333 25.7078 23.5105V39.8402C25.7078 40.5521 26.073 41.1802 26.626 41.5477V41.8585C26.626 42.7357 27.3401 43.4494 28.2178 43.4494H37.2159C38.0935 43.4494 38.8076 42.7357 38.8076 41.8585V41.5477C39.3605 41.1802 39.7258 40.5521 39.7258 39.8402V23.5105C39.7256 22.6334 39.0115 21.9196 38.134 21.9196ZM37.2157 42.1023H28.2176C28.0936 42.1023 27.9918 42.0093 27.9761 41.8898H37.4571C37.4416 42.0093 37.3399 42.1023 37.2157 42.1023ZM38.3785 39.8402C38.3785 40.2276 38.0628 40.5426 37.6748 40.5426H27.7585C27.3705 40.5426 27.0547 40.2275 27.0547 39.8402V29.7803H36.5777C36.6674 30.0469 36.9189 30.239 37.2156 30.239C37.5125 30.239 37.7639 30.0468 37.8536 29.7803H38.3785V39.8402Z" fill="white"/>
<path d="M31.9632 31.8748L30.8973 30.8099C30.6659 30.5787 30.3575 30.4514 30.0291 30.4514C29.6973 30.4514 29.3846 30.581 29.1492 30.8164L28.0655 31.8993C27.8324 32.1323 27.7027 32.4412 27.7 32.7694C27.6973 33.1017 27.8248 33.4136 28.059 33.6478L29.1249 34.7126C29.3562 34.9437 29.6645 35.0711 29.9928 35.0711C30.3246 35.0711 30.6373 34.9414 30.8732 34.7059L31.9565 33.6233C32.1924 33.3876 32.3223 33.075 32.3223 32.7428C32.3222 32.4144 32.1947 32.1061 31.9632 31.8748ZM29.9955 33.6784L29.0929 32.7767L30.0264 31.844L30.9288 32.7457L29.9955 33.6784Z" fill="white"/>
<path d="M36.9492 33.8931L35.8834 32.828C35.652 32.597 35.3436 32.4696 35.0153 32.4696C34.6834 32.4696 34.3708 32.5992 34.1352 32.8347L33.0517 33.9175C32.8185 34.1505 32.6887 34.4595 32.6861 34.7877C32.6834 35.1201 32.8109 35.4319 33.0451 35.666L34.1108 36.7307C34.3422 36.962 34.6505 37.0893 34.9789 37.0893C35.3108 37.0893 35.6234 36.9597 35.8592 36.7243L36.9427 35.6416C37.1786 35.4059 37.3084 35.0933 37.3084 34.761C37.3082 34.4327 37.1808 34.1242 36.9492 33.8931ZM34.9816 35.6966L34.0791 34.7951L35.0126 33.8623L35.9151 34.764L34.9816 35.6966Z" fill="white"/>
<path d="M31.2476 36.5062L30.0482 36.5064C29.4318 36.5064 28.9303 37.0109 28.9303 37.6311V38.8494C28.9303 39.4697 29.4317 39.9743 30.048 39.9743H31.2476C31.8639 39.9743 32.3653 39.4697 32.3653 38.8494V37.6311C32.3653 37.0109 31.8639 36.5062 31.2476 36.5062ZM31.0182 38.6273H30.2775V37.8536L31.0182 37.8534V38.6273Z" fill="white"/>
</svg>
